<?xml version="1.0" encoding="UTF-8"?>
<svg version="1.1" xmlns="http://www.w3.org/2000/svg" width="337" height="207">
<path d="M0 0 C18.645 -0.0825 37.29 -0.165 56.5 -0.25 C62.35814453 -0.28641602 68.21628906 -0.32283203 74.25195312 -0.36035156 C81.47949219 -0.37841797 81.47949219 -0.37841797 84.87731934 -0.3817749 C87.21914726 -0.38786357 89.5609637 -0.40181877 91.90270996 -0.42230225 C112.58673418 -0.59397253 134.08038665 0.14638823 150 15.375 C161.79040569 28.30288453 166.60359194 42.81958904 166.31640625 60.2421875 C165.06358336 75.12139265 159.82141821 87.56506101 149 98 C149.56847656 98.3403125 150.13695312 98.680625 150.72265625 99.03125 C163.54759578 107.08162941 170.67784354 119.33538016 174.51171875 133.84765625 C177.9679783 149.08284836 176.35267298 165.1574677 169 179 C159.76707096 193.47891144 145.68850037 200.11853507 129.90234375 204.94921875 C129.31960693 205.12799561 128.73687012 205.30677246 128.13647461 205.4909668 C121.19183889 207.14558518 114.38626816 207.13698594 107.28149414 207.11352539 C105.51090338 207.11370619 105.51090338 207.11370619 103.70454311 207.11389065 C99.8980614 207.11314653 96.09162916 207.10554111 92.28515625 207.09765625 C89.92932153 207.09618528 87.57348648 207.09516552 85.21765137 207.09460449 C76.49926258 207.08936958 67.7808808 207.07540833 59.0625 207.0625 C29.8265625 207.0315625 29.8265625 207.0315625 0 207 C0 138.69 0 70.38 0 0 Z M30 31 C30 51.46 30 71.92 30 93 C32.97 92.01 35.94 91.02 39 90 C47.26218812 87.48182462 54.90802913 86.55951936 63.52734375 86.55859375 C64.67811905 86.54538589 65.82889435 86.53217804 67.01454163 86.51856995 C70.6555528 86.47806712 74.29631632 86.4561256 77.9375 86.4375 C81.57503572 86.41354178 85.21234433 86.38515269 88.8497467 86.34571838 C91.10034788 86.32177843 93.35106733 86.30658337 95.60179138 86.30210876 C107.15498303 86.18910013 118.84583049 85.815744 128 78 C135.41002662 69.2743156 135.64161369 61.08241834 135 50 C133.64348259 42.92901948 129.70098586 39.05509794 124.125 34.8125 C118.06104949 31.29540871 112.32183457 30.70837807 105.49438477 30.77294922 C104.67406265 30.77265717 103.85374054 30.77236511 103.00856018 30.77206421 C100.31939816 30.77344836 97.63051938 30.78896616 94.94140625 30.8046875 C93.06811169 30.80842089 91.19481516 30.81126632 89.32151794 30.81326294 C84.40766951 30.82087376 79.4939406 30.84050022 74.58013916 30.8626709 C68.67546305 30.8867955 62.77074682 30.89592246 56.86603546 30.90757751 C47.91060735 30.92692618 38.95544116 30.96526655 30 31 Z M30 125 C29.90659566 126.62674778 29.88254829 128.25754051 29.88647461 129.88696289 C29.88655014 130.92796646 29.88662567 131.96897003 29.88670349 133.04151917 C29.89186478 134.1737944 29.89702606 135.30606964 29.90234375 136.47265625 C29.9037587 137.62543564 29.90517365 138.77821503 29.90663147 139.96592712 C29.91224995 143.66481064 29.92480558 147.36363464 29.9375 151.0625 C29.94251262 153.56315017 29.94707594 156.06380129 29.95117188 158.56445312 C29.96222538 164.70965588 29.97898148 170.85482369 30 177 C40.51874602 177.04647923 51.03746733 177.08194812 61.55629539 177.10362434 C66.44137594 177.11403138 71.32638587 177.12813396 76.21142578 177.15087891 C80.93172519 177.17271758 85.65195695 177.18459176 90.37230301 177.18975449 C92.16709074 177.19343054 93.96187506 177.20060861 95.75663376 177.21146011 C110.90240031 177.29933646 126.5444604 177.10915889 138.2421875 166.05078125 C143.04876042 160.44311285 146.25450293 153.46541931 146 146 C145.24085021 138.82258384 143.54915401 131.54915401 138.3125 126.3125 C127.34209317 117.46539772 115.44890459 116.8444345 101.9375 116.796875 C100.67341309 116.79117493 99.40932617 116.78547485 98.10693359 116.77960205 C95.43404556 116.77017366 92.76126914 116.7632663 90.08837891 116.75976562 C87.3769779 116.7553954 84.66589768 116.74155271 81.95458984 116.71875 C54.57919916 115.11912022 54.57919916 115.11912022 30 125 Z " fill="#C2A561" transform="translate(0,0)"/>
<path d="M0 0 C10.23 0 20.46 0 31 0 C31 58.41 31 116.82 31 177 C68.95 177 106.9 177 146 177 C146 186.9 146 196.8 146 207 C97.82 207 49.64 207 0 207 C0 138.69 0 70.38 0 0 Z " fill="#E1D289" transform="translate(191,0)"/>
</svg>
